<?xml version="1.0" encoding="UTF-8" standalone="no"?><svg xmlns="http://www.w3.org/2000/svg" xmlns:xlink="http://www.w3.org/1999/xlink" contentScriptType="application/ecmascript" contentStyleType="text/css" height="833px" preserveAspectRatio="none" style="width:2132px;height:833px;background:#FFFFFF;" version="1.1" viewBox="0 0 2132 833" width="2132px" zoomAndPan="magnify"><defs><filter height="300%" id="fyoqshxl5g493" width="300%" x="-1" y="-1"><feGaussianBlur result="blurOut" stdDeviation="2.0"/><feColorMatrix in="blurOut" result="blurOut2" type="matrix" values="0 0 0 0 0 0 0 0 0 0 0 0 0 0 0 0 0 0 .4 0"/><feOffset dx="4.0" dy="4.0" in="blurOut2" result="blurOut3"/><feBlend in="SourceGraphic" in2="blurOut3" mode="normal"/></filter></defs><g><rect fill="#FFFFFF" filter="url(#fyoqshxl5g493)" height="641.9219" style="stroke:#A80036;stroke-width:1.0;" width="10" x="139" y="98.2969"/><rect fill="#FFFFFF" filter="url(#fyoqshxl5g493)" height="611.7891" style="stroke:#A80036;stroke-width:1.0;" width="10" x="397.5" y="119.4297"/><rect fill="#FFFFFF" filter="url(#fyoqshxl5g493)" height="591.6563" style="stroke:#A80036;stroke-width:1.0;" width="10" x="801.5" y="148.5625"/><rect fill="#FFFFFF" filter="url(#fyoqshxl5g493)" height="320.4609" style="stroke:#A80036;stroke-width:1.0;" width="10" x="806.5" y="323.3594"/><rect fill="#FFFFFF" filter="url(#fyoqshxl5g493)" height="29.1328" style="stroke:#A80036;stroke-width:1.0;" width="10" x="1035.5" y="177.6953"/><rect fill="#FFFFFF" filter="url(#fyoqshxl5g493)" height="29.1328" style="stroke:#A80036;stroke-width:1.0;" width="10" x="1152.5" y="235.9609"/><rect fill="#FFFFFF" filter="url(#fyoqshxl5g493)" height="378.7266" style="stroke:#A80036;stroke-width:1.0;" width="10" x="1259" y="294.2266"/><rect fill="#FFFFFF" filter="url(#fyoqshxl5g493)" height="29.1328" style="stroke:#A80036;stroke-width:1.0;" width="10" x="1382.5" y="352.4922"/><rect fill="#FFFFFF" filter="url(#fyoqshxl5g493)" height="203.9297" style="stroke:#A80036;stroke-width:1.0;" width="10" x="1503.5" y="410.7578"/><rect fill="#FFFFFF" filter="url(#fyoqshxl5g493)" height="145.6641" style="stroke:#A80036;stroke-width:1.0;" width="10" x="1576" y="439.8906"/><rect fill="#FFFFFF" filter="url(#fyoqshxl5g493)" height="29.1328" style="stroke:#A80036;stroke-width:1.0;" width="10" x="1992" y="469.0234"/><rect fill="#FFFFFF" filter="url(#fyoqshxl5g493)" height="29.1328" style="stroke:#A80036;stroke-width:1.0;" width="10" x="2079.5" y="527.2891"/><line style="stroke:#A80036;stroke-width:1.0;stroke-dasharray:5.0,5.0;" x1="144" x2="144" y1="88.2969" y2="749.2188"/><line style="stroke:#A80036;stroke-width:1.0;stroke-dasharray:5.0,5.0;" x1="402" x2="402" y1="88.2969" y2="749.2188"/><line style="stroke:#A80036;stroke-width:1.0;stroke-dasharray:5.0,5.0;" x1="806" x2="806" y1="88.2969" y2="749.2188"/><line style="stroke:#A80036;stroke-width:1.0;stroke-dasharray:5.0,5.0;" x1="1040" x2="1040" y1="88.2969" y2="749.2188"/><line style="stroke:#A80036;stroke-width:1.0;stroke-dasharray:5.0,5.0;" x1="1157" x2="1157" y1="88.2969" y2="749.2188"/><line style="stroke:#A80036;stroke-width:1.0;stroke-dasharray:5.0,5.0;" x1="1264" x2="1264" y1="88.2969" y2="749.2188"/><line style="stroke:#A80036;stroke-width:1.0;stroke-dasharray:5.0,5.0;" x1="1387" x2="1387" y1="88.2969" y2="749.2188"/><line style="stroke:#A80036;stroke-width:1.0;stroke-dasharray:5.0,5.0;" x1="1508" x2="1508" y1="88.2969" y2="749.2188"/><line style="stroke:#A80036;stroke-width:1.0;stroke-dasharray:5.0,5.0;" x1="1581" x2="1581" y1="88.2969" y2="749.2188"/><line style="stroke:#A80036;stroke-width:1.0;stroke-dasharray:5.0,5.0;" x1="1997" x2="1997" y1="88.2969" y2="749.2188"/><line style="stroke:#A80036;stroke-width:1.0;stroke-dasharray:5.0,5.0;" x1="2084" x2="2084" y1="88.2969" y2="749.2188"/><text fill="#000000" font-family="sans-serif" font-size="14" lengthAdjust="spacing" textLength="272" x="5" y="84.9951">String message = helloService.sayHello</text><ellipse cx="144" cy="15" fill="#FEFECE" filter="url(#fyoqshxl5g493)" rx="8" ry="8" style="stroke:#A80036;stroke-width:2.0;"/><path d="M144,23 L144,50 M131,31 L157,31 M144,50 L131,65 M144,50 L157,65 " fill="none" filter="url(#fyoqshxl5g493)" style="stroke:#A80036;stroke-width:2.0;"/><text fill="#000000" font-family="sans-serif" font-size="14" lengthAdjust="spacing" textLength="272" x="5" y="761.2139">String message = helloService.sayHello</text><ellipse cx="144" cy="774.5156" fill="#FEFECE" filter="url(#fyoqshxl5g493)" rx="8" ry="8" style="stroke:#A80036;stroke-width:2.0;"/><path d="M144,782.5156 L144,809.5156 M131,790.5156 L157,790.5156 M144,809.5156 L131,824.5156 M144,809.5156 L157,824.5156 " fill="none" filter="url(#fyoqshxl5g493)" style="stroke:#A80036;stroke-width:2.0;"/><rect fill="#FEFECE" filter="url(#fyoqshxl5g493)" height="30.2969" style="stroke:#A80036;stroke-width:1.5;" width="215" x="293" y="53"/><text fill="#000000" font-family="sans-serif" font-size="14" lengthAdjust="spacing" textLength="201" x="300" y="72.9951">helloService(reference proxy)</text><rect fill="#FEFECE" filter="url(#fyoqshxl5g493)" height="30.2969" style="stroke:#A80036;stroke-width:1.5;" width="215" x="293" y="748.2188"/><text fill="#000000" font-family="sans-serif" font-size="14" lengthAdjust="spacing" textLength="201" x="300" y="768.2139">helloService(reference proxy)</text><rect fill="#FEFECE" filter="url(#fyoqshxl5g493)" height="30.2969" style="stroke:#A80036;stroke-width:1.5;" width="63" x="773" y="53"/><text fill="#000000" font-family="sans-serif" font-size="14" lengthAdjust="spacing" textLength="49" x="780" y="72.9951">Cluster</text><rect fill="#FEFECE" filter="url(#fyoqshxl5g493)" height="30.2969" style="stroke:#A80036;stroke-width:1.5;" width="63" x="773" y="748.2188"/><text fill="#000000" font-family="sans-serif" font-size="14" lengthAdjust="spacing" textLength="49" x="780" y="768.2139">Cluster</text><rect fill="#FEFECE" filter="url(#fyoqshxl5g493)" height="30.2969" style="stroke:#A80036;stroke-width:1.5;" width="95" x="991" y="53"/><text fill="#000000" font-family="sans-serif" font-size="14" lengthAdjust="spacing" textLength="81" x="998" y="72.9951">routerChain</text><rect fill="#FEFECE" filter="url(#fyoqshxl5g493)" height="30.2969" style="stroke:#A80036;stroke-width:1.5;" width="95" x="991" y="748.2188"/><text fill="#000000" font-family="sans-serif" font-size="14" lengthAdjust="spacing" textLength="81" x="998" y="768.2139">routerChain</text><rect fill="#FEFECE" filter="url(#fyoqshxl5g493)" height="30.2969" style="stroke:#A80036;stroke-width:1.5;" width="103" x="1104" y="53"/><text fill="#000000" font-family="sans-serif" font-size="14" lengthAdjust="spacing" textLength="89" x="1111" y="72.9951">loadBalancer</text><rect fill="#FEFECE" filter="url(#fyoqshxl5g493)" height="30.2969" style="stroke:#A80036;stroke-width:1.5;" width="103" x="1104" y="748.2188"/><text fill="#000000" font-family="sans-serif" font-size="14" lengthAdjust="spacing" textLength="89" x="1111" y="768.2139">loadBalancer</text><rect fill="#FEFECE" filter="url(#fyoqshxl5g493)" height="30.2969" style="stroke:#A80036;stroke-width:1.5;" width="82" x="1221" y="53"/><text fill="#000000" font-family="sans-serif" font-size="14" lengthAdjust="spacing" textLength="68" x="1228" y="72.9951">filterChain</text><rect fill="#FEFECE" filter="url(#fyoqshxl5g493)" height="30.2969" style="stroke:#A80036;stroke-width:1.5;" width="82" x="1221" y="748.2188"/><text fill="#000000" font-family="sans-serif" font-size="14" lengthAdjust="spacing" textLength="68" x="1228" y="768.2139">filterChain</text><rect fill="#FEFECE" filter="url(#fyoqshxl5g493)" height="30.2969" style="stroke:#A80036;stroke-width:1.5;" width="137" x="1317" y="53"/><text fill="#000000" font-family="sans-serif" font-size="14" lengthAdjust="spacing" textLength="123" x="1324" y="72.9951">connectionHolder</text><rect fill="#FEFECE" filter="url(#fyoqshxl5g493)" height="30.2969" style="stroke:#A80036;stroke-width:1.5;" width="137" x="1317" y="748.2188"/><text fill="#000000" font-family="sans-serif" font-size="14" lengthAdjust="spacing" textLength="123" x="1324" y="768.2139">connectionHolder</text><rect fill="#FEFECE" filter="url(#fyoqshxl5g493)" height="30.2969" style="stroke:#A80036;stroke-width:1.5;" width="77" x="1468" y="53"/><text fill="#000000" font-family="sans-serif" font-size="14" lengthAdjust="spacing" textLength="63" x="1475" y="72.9951">transport</text><rect fill="#FEFECE" filter="url(#fyoqshxl5g493)" height="30.2969" style="stroke:#A80036;stroke-width:1.5;" width="77" x="1468" y="748.2188"/><text fill="#000000" font-family="sans-serif" font-size="14" lengthAdjust="spacing" textLength="63" x="1475" y="768.2139">transport</text><rect fill="#FEFECE" filter="url(#fyoqshxl5g493)" height="30.2969" style="stroke:#A80036;stroke-width:1.5;" width="40" x="1559" y="53"/><text fill="#000000" font-family="sans-serif" font-size="14" lengthAdjust="spacing" textLength="26" x="1566" y="72.9951">bolt</text><rect fill="#FEFECE" filter="url(#fyoqshxl5g493)" height="30.2969" style="stroke:#A80036;stroke-width:1.5;" width="40" x="1559" y="748.2188"/><text fill="#000000" font-family="sans-serif" font-size="14" lengthAdjust="spacing" textLength="26" x="1566" y="768.2139">bolt</text><rect fill="#FEFECE" filter="url(#fyoqshxl5g493)" height="30.2969" style="stroke:#A80036;stroke-width:1.5;" width="76" x="1957" y="53"/><text fill="#000000" font-family="sans-serif" font-size="14" lengthAdjust="spacing" textLength="62" x="1964" y="72.9951">Serializer</text><rect fill="#FEFECE" filter="url(#fyoqshxl5g493)" height="30.2969" style="stroke:#A80036;stroke-width:1.5;" width="76" x="1957" y="748.2188"/><text fill="#000000" font-family="sans-serif" font-size="14" lengthAdjust="spacing" textLength="62" x="1964" y="768.2139">Serializer</text><rect fill="#FEFECE" filter="url(#fyoqshxl5g493)" height="30.2969" style="stroke:#A80036;stroke-width:1.5;" width="71" x="2047" y="53"/><text fill="#000000" font-family="sans-serif" font-size="14" lengthAdjust="spacing" textLength="57" x="2054" y="72.9951">Network</text><rect fill="#FEFECE" filter="url(#fyoqshxl5g493)" height="30.2969" style="stroke:#A80036;stroke-width:1.5;" width="71" x="2047" y="748.2188"/><text fill="#000000" font-family="sans-serif" font-size="14" lengthAdjust="spacing" textLength="57" x="2054" y="768.2139">Network</text><rect fill="#FFFFFF" filter="url(#fyoqshxl5g493)" height="641.9219" style="stroke:#A80036;stroke-width:1.0;" width="10" x="139" y="98.2969"/><rect fill="#FFFFFF" filter="url(#fyoqshxl5g493)" height="611.7891" style="stroke:#A80036;stroke-width:1.0;" width="10" x="397.5" y="119.4297"/><rect fill="#FFFFFF" filter="url(#fyoqshxl5g493)" height="591.6563" style="stroke:#A80036;stroke-width:1.0;" width="10" x="801.5" y="148.5625"/><rect fill="#FFFFFF" filter="url(#fyoqshxl5g493)" height="320.4609" style="stroke:#A80036;stroke-width:1.0;" width="10" x="806.5" y="323.3594"/><rect fill="#FFFFFF" filter="url(#fyoqshxl5g493)" height="29.1328" style="stroke:#A80036;stroke-width:1.0;" width="10" x="1035.5" y="177.6953"/><rect fill="#FFFFFF" filter="url(#fyoqshxl5g493)" height="29.1328" style="stroke:#A80036;stroke-width:1.0;" width="10" x="1152.5" y="235.9609"/><rect fill="#FFFFFF" filter="url(#fyoqshxl5g493)" height="378.7266" style="stroke:#A80036;stroke-width:1.0;" width="10" x="1259" y="294.2266"/><rect fill="#FFFFFF" filter="url(#fyoqshxl5g493)" height="29.1328" style="stroke:#A80036;stroke-width:1.0;" width="10" x="1382.5" y="352.4922"/><rect fill="#FFFFFF" filter="url(#fyoqshxl5g493)" height="203.9297" style="stroke:#A80036;stroke-width:1.0;" width="10" x="1503.5" y="410.7578"/><rect fill="#FFFFFF" filter="url(#fyoqshxl5g493)" height="145.6641" style="stroke:#A80036;stroke-width:1.0;" width="10" x="1576" y="439.8906"/><rect fill="#FFFFFF" filter="url(#fyoqshxl5g493)" height="29.1328" style="stroke:#A80036;stroke-width:1.0;" width="10" x="1992" y="469.0234"/><rect fill="#FFFFFF" filter="url(#fyoqshxl5g493)" height="29.1328" style="stroke:#A80036;stroke-width:1.0;" width="10" x="2079.5" y="527.2891"/><polygon fill="#A80036" points="385.5,115.4297,395.5,119.4297,385.5,123.4297,389.5,119.4297" style="stroke:#A80036;stroke-width:1.0;"/><line style="stroke:#A80036;stroke-width:1.0;" x1="149" x2="391.5" y1="119.4297" y2="119.4297"/><text fill="#000000" font-family="sans-serif" font-size="13" font-weight="bold" lengthAdjust="spacing" textLength="9" x="156" y="114.3638">1</text><text fill="#000000" font-family="sans-serif" font-size="13" lengthAdjust="spacing" textLength="172" x="169" y="114.3638">① 用户将请求参数传递给代理</text><polygon fill="#A80036" points="789.5,144.5625,799.5,148.5625,789.5,152.5625,793.5,148.5625" style="stroke:#A80036;stroke-width:1.0;"/><line style="stroke:#A80036;stroke-width:1.0;" x1="407.5" x2="795.5" y1="148.5625" y2="148.5625"/><text fill="#000000" font-family="sans-serif" font-size="13" font-weight="bold" lengthAdjust="spacing" textLength="9" x="414.5" y="143.4966">2</text><text fill="#000000" font-family="sans-serif" font-size="13" lengthAdjust="spacing" textLength="133" x="427.5" y="143.4966">② 请求参数会被封装成</text><text fill="#000000" font-family="sans-serif" font-size="13" font-weight="bold" lengthAdjust="spacing" textLength="94" x="560.5" y="143.4966">SofaRequest</text><text fill="#000000" font-family="sans-serif" font-size="13" lengthAdjust="spacing" textLength="135" x="654.5" y="143.4966">传递到 Cluster 组件中.</text><polygon fill="#A80036" points="1023.5,173.6953,1033.5,177.6953,1023.5,181.6953,1027.5,177.6953" style="stroke:#A80036;stroke-width:1.0;"/><line style="stroke:#A80036;stroke-width:1.0;" x1="811.5" x2="1029.5" y1="177.6953" y2="177.6953"/><text fill="#000000" font-family="sans-serif" font-size="13" font-weight="bold" lengthAdjust="spacing" textLength="9" x="818.5" y="172.6294">3</text><text fill="#000000" font-family="sans-serif" font-size="13" lengthAdjust="spacing" textLength="94" x="831.5" y="172.6294">③ 寻找到可用的</text><text fill="#000000" font-family="sans-serif" font-size="13" font-weight="bold" lengthAdjust="spacing" textLength="98" x="925.5" y="172.6294">服务器地址信息</text><polygon fill="#A80036" points="822.5,202.8281,812.5,206.8281,822.5,210.8281,818.5,206.8281" style="stroke:#A80036;stroke-width:1.0;"/><line style="stroke:#A80036;stroke-width:1.0;" x1="816.5" x2="1039.5" y1="206.8281" y2="206.8281"/><text fill="#000000" font-family="sans-serif" font-size="13" font-weight="bold" lengthAdjust="spacing" textLength="9" x="828.5" y="201.7622">4</text><text fill="#000000" font-family="sans-serif" font-size="13" lengthAdjust="spacing" textLength="143" x="841.5" y="201.7622">返回一堆服务器地址信息</text><polygon fill="#A80036" points="1140.5,231.9609,1150.5,235.9609,1140.5,239.9609,1144.5,235.9609" style="stroke:#A80036;stroke-width:1.0;"/><line style="stroke:#A80036;stroke-width:1.0;" x1="811.5" x2="1146.5" y1="235.9609" y2="235.9609"/><text fill="#000000" font-family="sans-serif" font-size="13" font-weight="bold" lengthAdjust="spacing" textLength="9" x="818.5" y="230.895">5</text><text fill="#000000" font-family="sans-serif" font-size="13" lengthAdjust="spacing" textLength="211" x="831.5" y="230.895">④ 根据负载均衡算法选出其中一台的</text><text fill="#000000" font-family="sans-serif" font-size="13" font-weight="bold" lengthAdjust="spacing" textLength="98" x="1042.5" y="230.895">服务器地址信息</text><polygon fill="#A80036" points="822.5,261.0938,812.5,265.0938,822.5,269.0938,818.5,265.0938" style="stroke:#A80036;stroke-width:1.0;"/><line style="stroke:#A80036;stroke-width:1.0;" x1="816.5" x2="1156.5" y1="265.0938" y2="265.0938"/><text fill="#000000" font-family="sans-serif" font-size="13" font-weight="bold" lengthAdjust="spacing" textLength="9" x="828.5" y="260.0278">6</text><text fill="#000000" font-family="sans-serif" font-size="13" lengthAdjust="spacing" textLength="0" x="845.5" y="260.0278"/><polygon fill="#A80036" points="1247,290.2266,1257,294.2266,1247,298.2266,1251,294.2266" style="stroke:#A80036;stroke-width:1.0;"/><line style="stroke:#A80036;stroke-width:1.0;" x1="811.5" x2="1253" y1="294.2266" y2="294.2266"/><text fill="#000000" font-family="sans-serif" font-size="13" font-weight="bold" lengthAdjust="spacing" textLength="9" x="818.5" y="289.1606">7</text><text fill="#000000" font-family="sans-serif" font-size="13" lengthAdjust="spacing" textLength="29" x="831.5" y="289.1606">⑤ 将</text><text fill="#000000" font-family="sans-serif" font-size="13" font-weight="bold" lengthAdjust="spacing" textLength="98" x="860.5" y="289.1606">服务器地址信息</text><text fill="#000000" font-family="sans-serif" font-size="13" lengthAdjust="spacing" textLength="13" x="958.5" y="289.1606">和</text><text fill="#000000" font-family="sans-serif" font-size="13" font-weight="bold" lengthAdjust="spacing" textLength="94" x="971.5" y="289.1606">SofaRequest</text><text fill="#000000" font-family="sans-serif" font-size="13" lengthAdjust="spacing" textLength="137" x="1065.5" y="289.1606">传递给 filterChain 处理</text><polygon fill="#A80036" points="827.5,319.3594,817.5,323.3594,827.5,327.3594,823.5,323.3594" style="stroke:#A80036;stroke-width:1.0;"/><line style="stroke:#A80036;stroke-width:1.0;" x1="821.5" x2="1258" y1="323.3594" y2="323.3594"/><text fill="#000000" font-family="sans-serif" font-size="13" font-weight="bold" lengthAdjust="spacing" textLength="9" x="833.5" y="318.2935">8</text><text fill="#000000" font-family="sans-serif" font-size="13" lengthAdjust="spacing" textLength="264" x="846.5" y="318.2935">⑥ 将请求再传递回 Cluster 的 sendMsg 方法</text><polygon fill="#A80036" points="1370.5,348.4922,1380.5,352.4922,1370.5,356.4922,1374.5,352.4922" style="stroke:#A80036;stroke-width:1.0;"/><line style="stroke:#A80036;stroke-width:1.0;" x1="816.5" x2="1376.5" y1="352.4922" y2="352.4922"/><text fill="#000000" font-family="sans-serif" font-size="13" font-weight="bold" lengthAdjust="spacing" textLength="9" x="823.5" y="347.4263">9</text><text fill="#000000" font-family="sans-serif" font-size="13" lengthAdjust="spacing" textLength="188" x="836.5" y="347.4263">⑥ 从 connectionHolder 中通过</text><text fill="#000000" font-family="sans-serif" font-size="13" font-weight="bold" lengthAdjust="spacing" textLength="98" x="1024.5" y="347.4263">服务器地址信息</text><text fill="#000000" font-family="sans-serif" font-size="13" lengthAdjust="spacing" textLength="78" x="1126.5" y="347.4263">找到链接信息</text><polygon fill="#A80036" points="827.5,377.625,817.5,381.625,827.5,385.625,823.5,381.625" style="stroke:#A80036;stroke-width:1.0;"/><line style="stroke:#A80036;stroke-width:1.0;" x1="821.5" x2="1386.5" y1="381.625" y2="381.625"/><text fill="#000000" font-family="sans-serif" font-size="13" font-weight="bold" lengthAdjust="spacing" textLength="18" x="833.5" y="376.5591">10</text><text fill="#000000" font-family="sans-serif" font-size="13" lengthAdjust="spacing" textLength="0" x="859.5" y="376.5591"/><polygon fill="#A80036" points="1491.5,406.7578,1501.5,410.7578,1491.5,414.7578,1495.5,410.7578" style="stroke:#A80036;stroke-width:1.0;"/><line style="stroke:#A80036;stroke-width:1.0;" x1="816.5" x2="1497.5" y1="410.7578" y2="410.7578"/><text fill="#000000" font-family="sans-serif" font-size="13" font-weight="bold" lengthAdjust="spacing" textLength="18" x="823.5" y="405.6919">11</text><text fill="#000000" font-family="sans-serif" font-size="13" lengthAdjust="spacing" textLength="400" x="845.5" y="405.6919">⑦ ClientTransport 使用网络框架 (SOFARPC 默认使用 bolt 框架) 将</text><text fill="#000000" font-family="sans-serif" font-size="13" font-weight="bold" lengthAdjust="spacing" textLength="94" x="1249.5" y="405.6919">SofaRequest</text><text fill="#000000" font-family="sans-serif" font-size="13" lengthAdjust="spacing" textLength="108" x="1347.5" y="405.6919">传输给目标服务器.</text><polygon fill="#A80036" points="1564,435.8906,1574,439.8906,1564,443.8906,1568,439.8906" style="stroke:#A80036;stroke-width:1.0;"/><line style="stroke:#A80036;stroke-width:1.0;" x1="1513.5" x2="1570" y1="439.8906" y2="439.8906"/><text fill="#000000" font-family="sans-serif" font-size="13" font-weight="bold" lengthAdjust="spacing" textLength="18" x="1520.5" y="434.8247">12</text><text fill="#000000" font-family="sans-serif" font-size="13" lengthAdjust="spacing" textLength="12" x="1542.5" y="434.8247">⑦</text><polygon fill="#A80036" points="1980,465.0234,1990,469.0234,1980,473.0234,1984,469.0234" style="stroke:#A80036;stroke-width:1.0;"/><line style="stroke:#A80036;stroke-width:1.0;" x1="1586" x2="1986" y1="469.0234" y2="469.0234"/><text fill="#000000" font-family="sans-serif" font-size="13" font-weight="bold" lengthAdjust="spacing" textLength="18" x="1593" y="463.9575">13</text><text fill="#000000" font-family="sans-serif" font-size="13" lengthAdjust="spacing" textLength="120" x="1615" y="463.9575">⑧ 使用序列化机制将</text><text fill="#000000" font-family="sans-serif" font-size="13" font-weight="bold" lengthAdjust="spacing" textLength="94" x="1739" y="463.9575">SofaRequest</text><text fill="#000000" font-family="sans-serif" font-size="13" lengthAdjust="spacing" textLength="143" x="1837" y="463.9575">序列化成二进制字节数组</text><polygon fill="#A80036" points="1597,494.1563,1587,498.1563,1597,502.1563,1593,498.1563" style="stroke:#A80036;stroke-width:1.0;"/><line style="stroke:#A80036;stroke-width:1.0;" x1="1591" x2="1996" y1="498.1563" y2="498.1563"/><text fill="#000000" font-family="sans-serif" font-size="13" font-weight="bold" lengthAdjust="spacing" textLength="18" x="1603" y="493.0903">14</text><text fill="#000000" font-family="sans-serif" font-size="13" lengthAdjust="spacing" textLength="0" x="1629" y="493.0903"/><polygon fill="#A80036" points="2067.5,523.2891,2077.5,527.2891,2067.5,531.2891,2071.5,527.2891" style="stroke:#A80036;stroke-width:1.0;"/><line style="stroke:#A80036;stroke-width:1.0;" x1="1586" x2="2073.5" y1="527.2891" y2="527.2891"/><text fill="#000000" font-family="sans-serif" font-size="13" font-weight="bold" lengthAdjust="spacing" textLength="18" x="1593" y="522.2231">15</text><text fill="#000000" font-family="sans-serif" font-size="13" lengthAdjust="spacing" textLength="172" x="1615" y="522.2231">⑨ 字节数组被发往目标服务器</text><polygon fill="#A80036" points="1597,552.4219,1587,556.4219,1597,560.4219,1593,556.4219" style="stroke:#A80036;stroke-width:1.0;"/><line style="stroke:#A80036;stroke-width:1.0;" x1="1591" x2="2083.5" y1="556.4219" y2="556.4219"/><text fill="#000000" font-family="sans-serif" font-size="13" font-weight="bold" lengthAdjust="spacing" textLength="18" x="1603" y="551.356">16</text><text fill="#000000" font-family="sans-serif" font-size="13" lengthAdjust="spacing" textLength="0" x="1629" y="551.356"/><polygon fill="#A80036" points="1524.5,581.5547,1514.5,585.5547,1524.5,589.5547,1520.5,585.5547" style="stroke:#A80036;stroke-width:1.0;"/><line style="stroke:#A80036;stroke-width:1.0;" x1="1518.5" x2="1580" y1="585.5547" y2="585.5547"/><text fill="#000000" font-family="sans-serif" font-size="13" font-weight="bold" lengthAdjust="spacing" textLength="18" x="1530.5" y="580.4888">17</text><text fill="#000000" font-family="sans-serif" font-size="13" lengthAdjust="spacing" textLength="0" x="1556.5" y="580.4888"/><polygon fill="#A80036" points="827.5,610.6875,817.5,614.6875,827.5,618.6875,823.5,614.6875" style="stroke:#A80036;stroke-width:1.0;"/><line style="stroke:#A80036;stroke-width:1.0;" x1="821.5" x2="1507.5" y1="614.6875" y2="614.6875"/><text fill="#000000" font-family="sans-serif" font-size="13" font-weight="bold" lengthAdjust="spacing" textLength="18" x="833.5" y="609.6216">18</text><text fill="#000000" font-family="sans-serif" font-size="13" lengthAdjust="spacing" textLength="0" x="859.5" y="609.6216"/><polygon fill="#A80036" points="1247,639.8203,1257,643.8203,1247,647.8203,1251,643.8203" style="stroke:#A80036;stroke-width:1.0;"/><line style="stroke:#A80036;stroke-width:1.0;" x1="811.5" x2="1253" y1="643.8203" y2="643.8203"/><text fill="#000000" font-family="sans-serif" font-size="13" font-weight="bold" lengthAdjust="spacing" textLength="18" x="818.5" y="638.7544">19</text><text fill="#000000" font-family="sans-serif" font-size="13" lengthAdjust="spacing" textLength="0" x="844.5" y="638.7544"/><polygon fill="#A80036" points="822.5,668.9531,812.5,672.9531,822.5,676.9531,818.5,672.9531" style="stroke:#A80036;stroke-width:1.0;"/><line style="stroke:#A80036;stroke-width:1.0;" x1="816.5" x2="1263" y1="672.9531" y2="672.9531"/><text fill="#000000" font-family="sans-serif" font-size="13" font-weight="bold" lengthAdjust="spacing" textLength="18" x="828.5" y="667.8872">20</text><text fill="#000000" font-family="sans-serif" font-size="13" lengthAdjust="spacing" textLength="0" x="854.5" y="667.8872"/><polygon fill="#A80036" points="418.5,698.0859,408.5,702.0859,418.5,706.0859,414.5,702.0859" style="stroke:#A80036;stroke-width:1.0;"/><line style="stroke:#A80036;stroke-width:1.0;" x1="412.5" x2="800.5" y1="702.0859" y2="702.0859"/><text fill="#000000" font-family="sans-serif" font-size="13" font-weight="bold" lengthAdjust="spacing" textLength="18" x="424.5" y="697.02">21</text><text fill="#000000" font-family="sans-serif" font-size="13" lengthAdjust="spacing" textLength="0" x="450.5" y="697.02"/><polygon fill="#A80036" points="160,727.2188,150,731.2188,160,735.2188,156,731.2188" style="stroke:#A80036;stroke-width:1.0;"/><line style="stroke:#A80036;stroke-width:1.0;" x1="154" x2="401.5" y1="731.2188" y2="731.2188"/><text fill="#000000" font-family="sans-serif" font-size="13" font-weight="bold" lengthAdjust="spacing" textLength="18" x="166" y="726.1528">22</text><text fill="#000000" font-family="sans-serif" font-size="13" lengthAdjust="spacing" textLength="0" x="192" y="726.1528"/></g></svg>