<?xml version="1.0" encoding="UTF-8" standalone="no"?><svg xmlns="http://www.w3.org/2000/svg" xmlns:xlink="http://www.w3.org/1999/xlink" contentScriptType="application/ecmascript" contentStyleType="text/css" height="542px" preserveAspectRatio="none" style="width:1631px;height:542px;background:#FFFFFF;" version="1.1" viewBox="0 0 1631 542" width="1631px" zoomAndPan="magnify"><defs><filter height="300%" id="fu7t94zj56eir" width="300%" x="-1" y="-1"><feGaussianBlur result="blurOut" stdDeviation="2.0"/><feColorMatrix in="blurOut" result="blurOut2" type="matrix" values="0 0 0 0 0 0 0 0 0 0 0 0 0 0 0 0 0 0 .4 0"/><feOffset dx="4.0" dy="4.0" in="blurOut2" result="blurOut3"/><feBlend in="SourceGraphic" in2="blurOut3" mode="normal"/></filter></defs><g><rect fill="#FFFFFF" filter="url(#fu7t94zj56eir)" height="350.5938" style="stroke:#A80036;stroke-width:1.0;" width="10" x="31.5" y="98.2969"/><rect fill="#FFFFFF" filter="url(#fu7t94zj56eir)" height="320.4609" style="stroke:#A80036;stroke-width:1.0;" width="10" x="104" y="119.4297"/><rect fill="#FFFFFF" filter="url(#fu7t94zj56eir)" height="29.1328" style="stroke:#A80036;stroke-width:1.0;" width="10" x="461" y="148.5625"/><rect fill="#FFFFFF" filter="url(#fu7t94zj56eir)" height="203.9297" style="stroke:#A80036;stroke-width:1.0;" width="10" x="591.5" y="206.8281"/><rect fill="#FFFFFF" filter="url(#fu7t94zj56eir)" height="145.6641" style="stroke:#A80036;stroke-width:1.0;" width="10" x="847.5" y="235.9609"/><rect fill="#FFFFFF" filter="url(#fu7t94zj56eir)" height="87.3984" style="stroke:#A80036;stroke-width:1.0;" width="10" x="1166.5" y="265.0938"/><rect fill="#FFFFFF" filter="url(#fu7t94zj56eir)" height="29.1328" style="stroke:#A80036;stroke-width:1.0;" width="10" x="1551.5" y="294.2266"/><line style="stroke:#A80036;stroke-width:1.0;stroke-dasharray:5.0,5.0;" x1="36" x2="36" y1="88.2969" y2="457.8906"/><line style="stroke:#A80036;stroke-width:1.0;stroke-dasharray:5.0,5.0;" x1="109" x2="109" y1="88.2969" y2="457.8906"/><line style="stroke:#A80036;stroke-width:1.0;stroke-dasharray:5.0,5.0;" x1="466" x2="466" y1="88.2969" y2="457.8906"/><line style="stroke:#A80036;stroke-width:1.0;stroke-dasharray:5.0,5.0;" x1="596" x2="596" y1="88.2969" y2="457.8906"/><line style="stroke:#A80036;stroke-width:1.0;stroke-dasharray:5.0,5.0;" x1="852.5" x2="852.5" y1="88.2969" y2="457.8906"/><line style="stroke:#A80036;stroke-width:1.0;stroke-dasharray:5.0,5.0;" x1="1171.5" x2="1171.5" y1="88.2969" y2="457.8906"/><line style="stroke:#A80036;stroke-width:1.0;stroke-dasharray:5.0,5.0;" x1="1556.5" x2="1556.5" y1="88.2969" y2="457.8906"/><text fill="#000000" font-family="sans-serif" font-size="14" lengthAdjust="spacing" textLength="57" x="5" y="84.9951">Network</text><ellipse cx="36.5" cy="15" fill="#FEFECE" filter="url(#fu7t94zj56eir)" rx="8" ry="8" style="stroke:#A80036;stroke-width:2.0;"/><path d="M36.5,23 L36.5,50 M23.5,31 L49.5,31 M36.5,50 L23.5,65 M36.5,50 L49.5,65 " fill="none" filter="url(#fu7t94zj56eir)" style="stroke:#A80036;stroke-width:2.0;"/><text fill="#000000" font-family="sans-serif" font-size="14" lengthAdjust="spacing" textLength="57" x="5" y="469.8857">Network</text><ellipse cx="36.5" cy="483.1875" fill="#FEFECE" filter="url(#fu7t94zj56eir)" rx="8" ry="8" style="stroke:#A80036;stroke-width:2.0;"/><path d="M36.5,491.1875 L36.5,518.1875 M23.5,499.1875 L49.5,499.1875 M36.5,518.1875 L23.5,533.1875 M36.5,518.1875 L49.5,533.1875 " fill="none" filter="url(#fu7t94zj56eir)" style="stroke:#A80036;stroke-width:2.0;"/><rect fill="#FEFECE" filter="url(#fu7t94zj56eir)" height="30.2969" style="stroke:#A80036;stroke-width:1.5;" width="58" x="78" y="53"/><text fill="#000000" font-family="sans-serif" font-size="14" lengthAdjust="spacing" textLength="44" x="85" y="72.9951">Server</text><rect fill="#FEFECE" filter="url(#fu7t94zj56eir)" height="30.2969" style="stroke:#A80036;stroke-width:1.5;" width="58" x="78" y="456.8906"/><text fill="#000000" font-family="sans-serif" font-size="14" lengthAdjust="spacing" textLength="44" x="85" y="476.8857">Server</text><rect fill="#FEFECE" filter="url(#fu7t94zj56eir)" height="30.2969" style="stroke:#A80036;stroke-width:1.5;" width="76" x="426" y="53"/><text fill="#000000" font-family="sans-serif" font-size="14" lengthAdjust="spacing" textLength="62" x="433" y="72.9951">Serializer</text><rect fill="#FEFECE" filter="url(#fu7t94zj56eir)" height="30.2969" style="stroke:#A80036;stroke-width:1.5;" width="76" x="426" y="456.8906"/><text fill="#000000" font-family="sans-serif" font-size="14" lengthAdjust="spacing" textLength="62" x="433" y="476.8857">Serializer</text><rect fill="#FEFECE" filter="url(#fu7t94zj56eir)" height="30.2969" style="stroke:#A80036;stroke-width:1.5;" width="157" x="516" y="53"/><text fill="#000000" font-family="sans-serif" font-size="14" lengthAdjust="spacing" textLength="143" x="523" y="72.9951">ProviderProxyInvoker</text><rect fill="#FEFECE" filter="url(#fu7t94zj56eir)" height="30.2969" style="stroke:#A80036;stroke-width:1.5;" width="157" x="516" y="456.8906"/><text fill="#000000" font-family="sans-serif" font-size="14" lengthAdjust="spacing" textLength="143" x="523" y="476.8857">ProviderProxyInvoker</text><rect fill="#FEFECE" filter="url(#fu7t94zj56eir)" height="30.2969" style="stroke:#A80036;stroke-width:1.5;" width="82" x="809.5" y="53"/><text fill="#000000" font-family="sans-serif" font-size="14" lengthAdjust="spacing" textLength="68" x="816.5" y="72.9951">filterChain</text><rect fill="#FEFECE" filter="url(#fu7t94zj56eir)" height="30.2969" style="stroke:#A80036;stroke-width:1.5;" width="82" x="809.5" y="456.8906"/><text fill="#000000" font-family="sans-serif" font-size="14" lengthAdjust="spacing" textLength="68" x="816.5" y="476.8857">filterChain</text><rect fill="#FEFECE" filter="url(#fu7t94zj56eir)" height="30.2969" style="stroke:#A80036;stroke-width:1.5;" width="120" x="1109.5" y="53"/><text fill="#000000" font-family="sans-serif" font-size="14" lengthAdjust="spacing" textLength="106" x="1116.5" y="72.9951">ProviderInvoker</text><rect fill="#FEFECE" filter="url(#fu7t94zj56eir)" height="30.2969" style="stroke:#A80036;stroke-width:1.5;" width="120" x="1109.5" y="456.8906"/><text fill="#000000" font-family="sans-serif" font-size="14" lengthAdjust="spacing" textLength="106" x="1116.5" y="476.8857">ProviderInvoker</text><rect fill="#FEFECE" filter="url(#fu7t94zj56eir)" height="30.2969" style="stroke:#A80036;stroke-width:1.5;" width="126" x="1491.5" y="53"/><text fill="#000000" font-family="sans-serif" font-size="14" lengthAdjust="spacing" textLength="112" x="1498.5" y="72.9951">HelloServiceImpl</text><rect fill="#FEFECE" filter="url(#fu7t94zj56eir)" height="30.2969" style="stroke:#A80036;stroke-width:1.5;" width="126" x="1491.5" y="456.8906"/><text fill="#000000" font-family="sans-serif" font-size="14" lengthAdjust="spacing" textLength="112" x="1498.5" y="476.8857">HelloServiceImpl</text><rect fill="#FFFFFF" filter="url(#fu7t94zj56eir)" height="350.5938" style="stroke:#A80036;stroke-width:1.0;" width="10" x="31.5" y="98.2969"/><rect fill="#FFFFFF" filter="url(#fu7t94zj56eir)" height="320.4609" style="stroke:#A80036;stroke-width:1.0;" width="10" x="104" y="119.4297"/><rect fill="#FFFFFF" filter="url(#fu7t94zj56eir)" height="29.1328" style="stroke:#A80036;stroke-width:1.0;" width="10" x="461" y="148.5625"/><rect fill="#FFFFFF" filter="url(#fu7t94zj56eir)" height="203.9297" style="stroke:#A80036;stroke-width:1.0;" width="10" x="591.5" y="206.8281"/><rect fill="#FFFFFF" filter="url(#fu7t94zj56eir)" height="145.6641" style="stroke:#A80036;stroke-width:1.0;" width="10" x="847.5" y="235.9609"/><rect fill="#FFFFFF" filter="url(#fu7t94zj56eir)" height="87.3984" style="stroke:#A80036;stroke-width:1.0;" width="10" x="1166.5" y="265.0938"/><rect fill="#FFFFFF" filter="url(#fu7t94zj56eir)" height="29.1328" style="stroke:#A80036;stroke-width:1.0;" width="10" x="1551.5" y="294.2266"/><polygon fill="#A80036" points="92,115.4297,102,119.4297,92,123.4297,96,119.4297" style="stroke:#A80036;stroke-width:1.0;"/><line style="stroke:#A80036;stroke-width:1.0;" x1="41.5" x2="98" y1="119.4297" y2="119.4297"/><text fill="#000000" font-family="sans-serif" font-size="13" font-weight="bold" lengthAdjust="spacing" textLength="9" x="48.5" y="114.3638">1</text><text fill="#000000" font-family="sans-serif" font-size="13" lengthAdjust="spacing" textLength="0" x="65.5" y="114.3638"/><polygon fill="#A80036" points="449,144.5625,459,148.5625,449,152.5625,453,148.5625" style="stroke:#A80036;stroke-width:1.0;"/><line style="stroke:#A80036;stroke-width:1.0;" x1="114" x2="455" y1="148.5625" y2="148.5625"/><text fill="#000000" font-family="sans-serif" font-size="13" font-weight="bold" lengthAdjust="spacing" textLength="9" x="121" y="143.4966">2</text><text fill="#000000" font-family="sans-serif" font-size="13" lengthAdjust="spacing" textLength="217" x="134" y="143.4966">① 通过 Serializer 进行反序列化,得到</text><text fill="#000000" font-family="sans-serif" font-size="13" font-weight="bold" lengthAdjust="spacing" textLength="94" x="355" y="143.4966">SofaRequest</text><polygon fill="#A80036" points="125,173.6953,115,177.6953,125,181.6953,121,177.6953" style="stroke:#A80036;stroke-width:1.0;"/><line style="stroke:#A80036;stroke-width:1.0;" x1="119" x2="465" y1="177.6953" y2="177.6953"/><text fill="#000000" font-family="sans-serif" font-size="13" font-weight="bold" lengthAdjust="spacing" textLength="9" x="131" y="172.6294">3</text><text fill="#000000" font-family="sans-serif" font-size="13" lengthAdjust="spacing" textLength="0" x="148" y="172.6294"/><polygon fill="#A80036" points="579.5,202.8281,589.5,206.8281,579.5,210.8281,583.5,206.8281" style="stroke:#A80036;stroke-width:1.0;"/><line style="stroke:#A80036;stroke-width:1.0;" x1="114" x2="585.5" y1="206.8281" y2="206.8281"/><text fill="#000000" font-family="sans-serif" font-size="13" font-weight="bold" lengthAdjust="spacing" textLength="9" x="121" y="201.7622">4</text><text fill="#000000" font-family="sans-serif" font-size="13" lengthAdjust="spacing" textLength="303" x="134" y="201.7622">② Server 接着将请求传递给 ProviderProxyInvoker</text><polygon fill="#A80036" points="835.5,231.9609,845.5,235.9609,835.5,239.9609,839.5,235.9609" style="stroke:#A80036;stroke-width:1.0;"/><line style="stroke:#A80036;stroke-width:1.0;" x1="601.5" x2="841.5" y1="235.9609" y2="235.9609"/><text fill="#000000" font-family="sans-serif" font-size="13" font-weight="bold" lengthAdjust="spacing" textLength="9" x="608.5" y="230.895">5</text><text fill="#000000" font-family="sans-serif" font-size="13" lengthAdjust="spacing" textLength="214" x="621.5" y="230.895">③ 将请求传递给服务端的 filterChain</text><polygon fill="#A80036" points="1154.5,261.0938,1164.5,265.0938,1154.5,269.0938,1158.5,265.0938" style="stroke:#A80036;stroke-width:1.0;"/><line style="stroke:#A80036;stroke-width:1.0;" x1="857.5" x2="1160.5" y1="265.0938" y2="265.0938"/><text fill="#000000" font-family="sans-serif" font-size="13" font-weight="bold" lengthAdjust="spacing" textLength="9" x="864.5" y="260.0278">6</text><text fill="#000000" font-family="sans-serif" font-size="13" lengthAdjust="spacing" textLength="0" x="881.5" y="260.0278"/><polygon fill="#A80036" points="1539.5,290.2266,1549.5,294.2266,1539.5,298.2266,1543.5,294.2266" style="stroke:#A80036;stroke-width:1.0;"/><line style="stroke:#A80036;stroke-width:1.0;" x1="1176.5" x2="1545.5" y1="294.2266" y2="294.2266"/><text fill="#000000" font-family="sans-serif" font-size="13" font-weight="bold" lengthAdjust="spacing" textLength="9" x="1183.5" y="289.1606">7</text><text fill="#000000" font-family="sans-serif" font-size="13" lengthAdjust="spacing" textLength="42" x="1196.5" y="289.1606">④ 通过</text><text fill="#000000" font-family="sans-serif" font-size="13" font-weight="bold" lengthAdjust="spacing" textLength="94" x="1242.5" y="289.1606">SofaRequest</text><text fill="#000000" font-family="sans-serif" font-size="13" lengthAdjust="spacing" textLength="199" x="1340.5" y="289.1606">中的信息,反射调用具体的用户实现</text><polygon fill="#A80036" points="1187.5,319.3594,1177.5,323.3594,1187.5,327.3594,1183.5,323.3594" style="stroke:#A80036;stroke-width:1.0;"/><line style="stroke:#A80036;stroke-width:1.0;" x1="1181.5" x2="1555.5" y1="323.3594" y2="323.3594"/><text fill="#000000" font-family="sans-serif" font-size="13" font-weight="bold" lengthAdjust="spacing" textLength="9" x="1193.5" y="318.2935">8</text><text fill="#000000" font-family="sans-serif" font-size="13" lengthAdjust="spacing" textLength="0" x="1210.5" y="318.2935"/><polygon fill="#A80036" points="868.5,348.4922,858.5,352.4922,868.5,356.4922,864.5,352.4922" style="stroke:#A80036;stroke-width:1.0;"/><line style="stroke:#A80036;stroke-width:1.0;" x1="862.5" x2="1170.5" y1="352.4922" y2="352.4922"/><text fill="#000000" font-family="sans-serif" font-size="13" font-weight="bold" lengthAdjust="spacing" textLength="9" x="874.5" y="347.4263">9</text><text fill="#000000" font-family="sans-serif" font-size="13" lengthAdjust="spacing" textLength="94" x="887.5" y="347.4263">⑤ 将结果封装到</text><text fill="#000000" font-family="sans-serif" font-size="13" font-weight="bold" lengthAdjust="spacing" textLength="105" x="985.5" y="347.4263">SofaResponse</text><text fill="#000000" font-family="sans-serif" font-size="13" lengthAdjust="spacing" textLength="65" x="1094.5" y="347.4263">对象中返回</text><polygon fill="#A80036" points="612.5,377.625,602.5,381.625,612.5,385.625,608.5,381.625" style="stroke:#A80036;stroke-width:1.0;"/><line style="stroke:#A80036;stroke-width:1.0;" x1="606.5" x2="851.5" y1="381.625" y2="381.625"/><text fill="#000000" font-family="sans-serif" font-size="13" font-weight="bold" lengthAdjust="spacing" textLength="18" x="618.5" y="376.5591">10</text><text fill="#000000" font-family="sans-serif" font-size="13" lengthAdjust="spacing" textLength="0" x="644.5" y="376.5591"/><polygon fill="#A80036" points="125,406.7578,115,410.7578,125,414.7578,121,410.7578" style="stroke:#A80036;stroke-width:1.0;"/><line style="stroke:#A80036;stroke-width:1.0;" x1="119" x2="595.5" y1="410.7578" y2="410.7578"/><text fill="#000000" font-family="sans-serif" font-size="13" font-weight="bold" lengthAdjust="spacing" textLength="18" x="131" y="405.6919">11</text><text fill="#000000" font-family="sans-serif" font-size="13" lengthAdjust="spacing" textLength="0" x="157" y="405.6919"/><polygon fill="#A80036" points="52.5,435.8906,42.5,439.8906,52.5,443.8906,48.5,439.8906" style="stroke:#A80036;stroke-width:1.0;"/><line style="stroke:#A80036;stroke-width:1.0;" x1="46.5" x2="108" y1="439.8906" y2="439.8906"/><text fill="#000000" font-family="sans-serif" font-size="13" font-weight="bold" lengthAdjust="spacing" textLength="18" x="58.5" y="434.8247">12</text><text fill="#000000" font-family="sans-serif" font-size="13" lengthAdjust="spacing" textLength="0" x="84.5" y="434.8247"/></g></svg>